<svg xmlns="http://www.w3.org/2000/svg" version="1.1" xmlns:xlink="http://www.w3.org/1999/xlink" xmlns:svgjs="http://svgjs.dev/svgjs" width="2000" height="1247" viewBox="0 0 2000 1247"><g transform="matrix(1,0,0,1,-1.2121212121212466,0.504858299595071)"><svg viewBox="0 0 396 247" data-background-color="#ffffff" preserveAspectRatio="xMidYMid meet" height="1247" width="2000" xmlns="http://www.w3.org/2000/svg" xmlns:xlink="http://www.w3.org/1999/xlink"><g id="tight-bounds" transform="matrix(1,0,0,1,0.2400000000000091,-0.09999999999999432)"><svg viewBox="0 0 395.52 247.2" height="247.2" width="395.52"><g><svg></svg></g><g><svg viewBox="0 0 395.52 247.2" height="247.2" width="395.52"><mask id="cd30c57a-9b2b-496b-8575-f2a0b261ec41"><rect width="395.52" height="247.2" fill="white"></rect><g transform="matrix(1,0,0,1,135.14539923954374,37.08)" id="clone"><svg viewBox="0 0 125.22920152091254 173.04" height="173.04" width="125.22920152091254"><g><svg viewBox="0 0 125.22920152091254 173.04" height="173.04" width="125.22920152091254"><g><svg viewBox="0 0 125.22920152091254 173.04" height="173.04" width="125.22920152091254"><g><svg viewBox="0 0 125.22920152091254 173.04" height="173.04" width="125.22920152091254"><g id="SvgjsG1901"><svg viewBox="0 0 125.22920152091254 173.04" height="173.04" width="125.22920152091254" id="SvgjsSvg1900"><g><svg viewBox="0 0 125.22920152091254 173.04" height="173.04" width="125.22920152091254"><g transform="matrix(1,0,0,1,0,0)"><svg width="125.22920152091254" viewBox="-2.6 -37.45 29.55 40.45" height="173.04" data-palette-color="#00adc9"><path d="M23.95 0L19.3 0 17.25-8.75 6.95-8.75 4.9 0 0.4 0 9.35-34.45 15-34.45 23.95 0ZM12.1-30.65L7.8-12.4 16.4-12.4 12.1-30.65Z" opacity="1" transform="matrix(1,0,0,1,0,0)" fill="black" class="wordmark-text-0" id="SvgjsPath1899" stroke-width="5" stroke="black" stroke-linejoin="round"></path></svg></g></svg></g></svg></g></svg></g><g></g></svg></g></svg></g></svg></g></mask><g mask="url(#cd30c57a-9b2b-496b-8575-f2a0b261ec41)"><g><path d="M260.139 214.851h-24.634l-10.86-46.354h-54.565l-10.86 46.354h-23.839l47.413-182.502h29.932zM197.363 52.48l-22.78 96.681h45.559z" fill="#ffffff" fill-rule="nonzero" stroke="none" stroke-width="1" stroke-linecap="butt" stroke-linejoin="miter" stroke-miterlimit="10" stroke-dasharray="" stroke-dashoffset="0" font-family="none" font-weight="none" font-size="none" text-anchor="none" style="mix-blend-mode: normal" data-fill-palette-color="tertiary"></path></g></g><g transform="matrix(1,0,0,1,135.14539923954374,37.08)"><svg viewBox="0 0 125.22920152091254 173.04" height="173.04" width="125.22920152091254"><g><svg viewBox="0 0 125.22920152091254 173.04" height="173.04" width="125.22920152091254"><g><svg viewBox="0 0 125.22920152091254 173.04" height="173.04" width="125.22920152091254"><g><svg viewBox="0 0 125.22920152091254 173.04" height="173.04" width="125.22920152091254"><g id="textblocktransform"><svg viewBox="0 0 125.22920152091254 173.04" height="173.04" width="125.22920152091254" id="textblock"><g><svg viewBox="0 0 125.22920152091254 173.04" height="173.04" width="125.22920152091254"><g transform="matrix(1,0,0,1,0,0)"><svg width="125.22920152091254" viewBox="-2.6 -37.45 29.55 40.45" height="173.04" data-palette-color="#00adc9"><path d="M23.95 0L19.3 0 17.25-8.75 6.95-8.75 4.9 0 0.4 0 9.35-34.45 15-34.45 23.95 0ZM12.1-30.65L7.8-12.4 16.4-12.4 12.1-30.65Z" opacity="1" transform="matrix(1,0,0,1,0,0)" fill="#ffffff" class="wordmark-text-0" data-fill-palette-color="primary" id="text-0"></path></svg></g></svg></g></svg></g></svg></g><g></g></svg></g></svg></g></svg></g></svg></g><defs></defs></svg><rect width="395.52" height="247.2" fill="none" stroke="none" visibility="hidden"></rect></g></svg></g></svg>